<?xml version="1.0" standalone="no"?> <!DOCTYPE svg PUBLIC "-//W3C//DTD SVG 1.0//EN" "http://www.w3.org/TR/2001/REC-SVG-20010904/DTD/svg10.dtd"><svg xmlns:xlink="http://www.w3.org/1999/xlink" height="450" width="1138" version="1.1" xmlns="http://www.w3.org/2000/svg"><desc>Created with Highcharts 3.0.1</desc><defs><clipPath id="highcharts-7"><rect height="450" width="9999" y="0" x="0" fill="none" ry="0" rx="0"></rect></clipPath><linearGradient id="highcharts-8" gradientUnits="userSpaceOnUse" y2="500" x2="500" y1="0" x1="0"><stop stop-opacity="1" stop-color="rgb(239, 239, 239)" offset="0"></stop></linearGradient><clipPath id="highcharts-9"><rect height="348" width="1041" y="1" x="1" fill="none"></rect></clipPath></defs><rect height="450" width="1138" y="0" x="0" fill="url(#highcharts-8)" ry="5" rx="5"></rect><rect fill-opacity="0.9" height="350" width="1043" y="40" x="65" fill="rgb(255,255,255)" ry="0" rx="0"></rect><g  class="highcharts-grid"></g><g  class="highcharts-grid"><path opacity="1"  stroke-width="1" stroke="#C0C0C0" d="M 65 303.5 L 1108 303.5" fill="none"></path><path opacity="1"  stroke-width="1" stroke="#C0C0C0" d="M 65 215.5 L 1108 215.5" fill="none"></path><path opacity="1"  stroke-width="1" stroke="#C0C0C0" d="M 65 128.5 L 1108 128.5" fill="none"></path><path opacity="1"  stroke-width="1" stroke="#C0C0C0" d="M 65 40.5 L 1108 40.5" fill="none"></path><path opacity="1"  stroke-width="1" stroke="#C0C0C0" d="M 65 389.5 L 1108 389.5" fill="none"></path></g><rect  stroke-width="1" stroke="#C0C0C0" height="349" width="1042" y="40.5" x="65.5" fill="none" ry="0" rx="0"></rect><g  class="highcharts-axis"><path opacity="1" stroke-width="1" stroke="#333" d="M 260.5 390 L 260.5 395" fill="none"></path><path opacity="1" stroke-width="1" stroke="#333" d="M 390.5 390 L 390.5 395" fill="none"></path><path opacity="1" stroke-width="1" stroke="#333" d="M 520.5 390 L 520.5 395" fill="none"></path><path opacity="1" stroke-width="1" stroke="#333" d="M 651.5 390 L 651.5 395" fill="none"></path><path opacity="1" stroke-width="1" stroke="#333" d="M 781.5 390 L 781.5 395" fill="none"></path><path opacity="1" stroke-width="1" stroke="#333" d="M 911.5 390 L 911.5 395" fill="none"></path><path opacity="1" stroke-width="1" stroke="#333" d="M 1042.5 390 L 1042.5 395" fill="none"></path><path opacity="1" stroke-width="1" stroke="#333" d="M 129.5 390 L 129.5 395" fill="none"></path><path visibility="visible"  stroke-width="1" stroke="#333" d="M 65 389.5 L 1108 389.5" fill="none"></path></g><g  class="highcharts-axis"><path opacity="1" stroke-width="1" stroke="#999" d="M 65 303.5 L 60 303.5" fill="none"></path><path opacity="1" stroke-width="1" stroke="#999" d="M 65 215.5 L 60 215.5" fill="none"></path><path opacity="1" stroke-width="1" stroke="#999" d="M 65 128.5 L 60 128.5" fill="none"></path><path opacity="1" stroke-width="1" stroke="#999" d="M 65 40.5 L 60 40.5" fill="none"></path><path opacity="1" stroke-width="1" stroke="#999" d="M 65 389.5 L 60 389.5" fill="none"></path><text visibility="visible" transform="rotate(270 26 215)" text-anchor="middle"  style="font-family:trebuchet ms, verdana, sans-serif;font-size:12px;color:#0a708c;font-weight:bold;font:bold 14px vernada, sans-serif;fill:#0a708c;" y="215" x="26"><tspan x="26">Số lượng</tspan></text><path visibility="visible"  stroke-width="1" stroke="#aaa" d="M 65.5 40 L 65.5 390" fill="none"></path></g><g  class="highcharts-series-group"><g clip-path="url(#highcharts-9)" transform="translate(65,40) scale(1 1)"  visibility="visible" class="highcharts-series"><path  fill-opacity="0.2" d="M 65.1875 350 C 65.1875 350 143.4125 350 195.5625 350 C 247.7125 350 273.7875 350 325.9375 350 C 378.0875 350 404.1625 350 456.3125 350 C 508.4625 350 534.5375 350 586.6875 350 C 638.8375 350 664.9125 63 717.0625 49 C 769.2125 35 795.2875 35 847.4375 35 C 899.5875 35 977.8125 290.5 977.8125 290.5 L 977.8125 350 L 65.1875 350" fill="rgb(98,122,173)"></path><path  stroke-width="2" stroke="#627AAD" d="M 65.1875 350 C 65.1875 350 143.4125 350 195.5625 350 C 247.7125 350 273.7875 350 325.9375 350 C 378.0875 350 404.1625 350 456.3125 350 C 508.4625 350 534.5375 350 586.6875 350 C 638.8375 350 664.9125 63 717.0625 49 C 769.2125 35 795.2875 35 847.4375 35 C 899.5875 35 977.8125 290.5 977.8125 290.5" fill="none"></path></g><g clip-path="none" transform="translate(65,40) scale(1 1)"  visibility="visible" class="highcharts-markers"><path d="M 977.8125 286.5 C 983.1405 286.5 983.1405 294.5 977.8125 294.5 C 972.4845 294.5 972.4845 286.5 977.8125 286.5 Z" fill="#627AAD"></path><path d="M 847.4375 31 C 852.7655 31 852.7655 39 847.4375 39 C 842.1095 39 842.1095 31 847.4375 31 Z" fill="#627AAD"></path><path d="M 717.0625 45 C 722.3905 45 722.3905 53 717.0625 53 C 711.7345 53 711.7345 45 717.0625 45 Z" fill="#627AAD"></path><path d="M 586.6875 346 C 592.0155 346 592.0155 354 586.6875 354 C 581.3595 354 581.3595 346 586.6875 346 Z" fill="#627AAD"></path><path d="M 456.3125 346 C 461.6405 346 461.6405 354 456.3125 354 C 450.9845 354 450.9845 346 456.3125 346 Z" fill="#627AAD"></path><path d="M 325.9375 346 C 331.2655 346 331.2655 354 325.9375 354 C 320.6095 354 320.6095 346 325.9375 346 Z" fill="#627AAD"></path><path d="M 195.5625 346 C 200.8905 346 200.8905 354 195.5625 354 C 190.2345 354 190.2345 346 195.5625 346 Z" fill="#627AAD"></path><path d="M 65.1875 346 C 70.5155 346 70.5155 354 65.1875 354 C 59.8595 354 59.8595 346 65.1875 346 Z" fill="#627AAD"></path><path style=""  stroke-width="22" stroke="rgb(192,192,192)" stroke-opacity="0.0001" visibility="visible" stroke-linejoin="round" class="highcharts-tracker highcharts-tracker" d="M 55.1875 350 L 65.1875 350 C 65.1875 350 143.4125 350 195.5625 350 C 247.7125 350 273.7875 350 325.9375 350 C 378.0875 350 404.1625 350 456.3125 350 C 508.4625 350 534.5375 350 586.6875 350 C 638.8375 350 664.9125 63 717.0625 49 C 769.2125 35 795.2875 35 847.4375 35 C 899.5875 35 977.8125 290.5 977.8125 290.5 L 987.8125 290.5" fill="none"></path></g></g><text  class="highcharts-title" text-anchor="middle" style="font-family:'lucida grande', 'lucida sans unicode', verdana, arial, helvetica, sans-serif;font-size:16px;color:#0a708c;font:normal 18px arial, sans-serif;fill:#0a708c;" y="25" x="559"><tspan x="559">Click</tspan></text><g transform="translate(441,416)"  class="highcharts-legend"><rect visibility="visible" stroke-width="1" stroke="#909090" height="26" width="255" y="0.5" x="0.5" fill="#FFFFFF" ry="5" rx="5"></rect><g clip-path="url(#highcharts-7)" ><g><g transform="translate(8,3)"  class="highcharts-legend-item"><path stroke-width="2" stroke="#627AAD" d="M 0 11 L 16 11" fill="none"></path><path d="M 8 7 C 13.328 7 13.328 15 8 15 C 2.6719999999999997 15 2.6719999999999997 7 8 7 Z" fill="#627AAD"></path><text  text-anchor="start" style="font-family:'lucida grande', 'lucida sans unicode', verdana, arial, helvetica, sans-serif;font-size:12px;cursor:pointer;color:black;font:9pt trebuchet ms, verdana, sans-serif;fill:black;" y="15" x="21"><tspan x="21">Bình ngâm rượu vẽ sơn thủy men xanh</tspan></text></g></g></g></g><g  class="highcharts-axis-labels"><text opacity="1" text-anchor="middle" style="font-family:'lucida grande', 'lucida sans unicode', verdana, arial, helvetica, sans-serif;font-size:11px;width:110px;color:#000;cursor:default;line-height:14px;font:11px trebuchet ms, verdana, sans-serif;fill:#000;" y="404" x="130.1875"><tspan x="130.1875">23/06/2016</tspan></text><text opacity="1" text-anchor="middle" style="font-family:'lucida grande', 'lucida sans unicode', verdana, arial, helvetica, sans-serif;font-size:11px;width:110px;color:#000;cursor:default;line-height:14px;font:11px trebuchet ms, verdana, sans-serif;fill:#000;" y="404" x="260.5625"><tspan x="260.5625">24/06/2016</tspan></text><text opacity="1" text-anchor="middle" style="font-family:'lucida grande', 'lucida sans unicode', verdana, arial, helvetica, sans-serif;font-size:11px;width:110px;color:#000;cursor:default;line-height:14px;font:11px trebuchet ms, verdana, sans-serif;fill:#000;" y="404" x="390.9375"><tspan x="390.9375">25/06/2016</tspan></text><text opacity="1" text-anchor="middle" style="font-family:'lucida grande', 'lucida sans unicode', verdana, arial, helvetica, sans-serif;font-size:11px;width:110px;color:#000;cursor:default;line-height:14px;font:11px trebuchet ms, verdana, sans-serif;fill:#000;" y="404" x="521.3125"><tspan x="521.3125">26/06/2016</tspan></text><text opacity="1" text-anchor="middle" style="font-family:'lucida grande', 'lucida sans unicode', verdana, arial, helvetica, sans-serif;font-size:11px;width:110px;color:#000;cursor:default;line-height:14px;font:11px trebuchet ms, verdana, sans-serif;fill:#000;" y="404" x="651.6875"><tspan x="651.6875">27/06/2016</tspan></text><text opacity="1" text-anchor="middle" style="font-family:'lucida grande', 'lucida sans unicode', verdana, arial, helvetica, sans-serif;font-size:11px;width:110px;color:#000;cursor:default;line-height:14px;font:11px trebuchet ms, verdana, sans-serif;fill:#000;" y="404" x="782.0625"><tspan x="782.0625">28/06/2016</tspan></text><text opacity="1" text-anchor="middle" style="font-family:'lucida grande', 'lucida sans unicode', verdana, arial, helvetica, sans-serif;font-size:11px;width:110px;color:#000;cursor:default;line-height:14px;font:11px trebuchet ms, verdana, sans-serif;fill:#000;" y="404" x="912.4375"><tspan x="912.4375">29/06/2016</tspan></text><text opacity="1" text-anchor="middle" style="font-family:'lucida grande', 'lucida sans unicode', verdana, arial, helvetica, sans-serif;font-size:11px;width:110px;color:#000;cursor:default;line-height:14px;font:11px trebuchet ms, verdana, sans-serif;fill:#000;" y="404" x="1042.8125"><tspan x="1042.8125">30/06/2016</tspan></text></g><g  class="highcharts-axis-labels"><text opacity="1" text-anchor="end" style="font-family:'lucida grande', 'lucida sans unicode', verdana, arial, helvetica, sans-serif;font-size:11px;width:502px;color:#000;cursor:default;line-height:14px;font:11px trebuchet ms, verdana, sans-serif;fill:#000;" y="395.6" x="57"><tspan x="57">0</tspan></text><text opacity="1" text-anchor="end" style="font-family:'lucida grande', 'lucida sans unicode', verdana, arial, helvetica, sans-serif;font-size:11px;width:502px;color:#000;cursor:default;line-height:14px;font:11px trebuchet ms, verdana, sans-serif;fill:#000;" y="308.1" x="57"><tspan x="57">50</tspan></text><text opacity="1" text-anchor="end" style="font-family:'lucida grande', 'lucida sans unicode', verdana, arial, helvetica, sans-serif;font-size:11px;width:502px;color:#000;cursor:default;line-height:14px;font:11px trebuchet ms, verdana, sans-serif;fill:#000;" y="220.6" x="57"><tspan x="57">100</tspan></text><text opacity="1" text-anchor="end" style="font-family:'lucida grande', 'lucida sans unicode', verdana, arial, helvetica, sans-serif;font-size:11px;width:502px;color:#000;cursor:default;line-height:14px;font:11px trebuchet ms, verdana, sans-serif;fill:#000;" y="133.1" x="57"><tspan x="57">150</tspan></text><text opacity="1" text-anchor="end" style="font-family:'lucida grande', 'lucida sans unicode', verdana, arial, helvetica, sans-serif;font-size:11px;width:502px;color:#000;cursor:default;line-height:14px;font:11px trebuchet ms, verdana, sans-serif;fill:#000;" y="45.6" x="57"><tspan x="57">200</tspan></text></g><g visibility="hidden" style="cursor:default;padding:0;white-space:nowrap;font:normal 12px vernada, sans-serif;"  class="highcharts-tooltip"><rect transform="translate(1, 1)" stroke-width="5" stroke-opacity="0.049999999999999996" stroke="black"  fill-opacity="0.85" height="16" width="16" y="0.5" x="0.5" fill="none" ry="3" rx="3"></rect><rect transform="translate(1, 1)" stroke-width="3" stroke-opacity="0.09999999999999999" stroke="black"  fill-opacity="0.85" height="16" width="16" y="0.5" x="0.5" fill="none" ry="3" rx="3"></rect><rect transform="translate(1, 1)" stroke-width="1" stroke-opacity="0.15" stroke="black"  fill-opacity="0.85" height="16" width="16" y="0.5" x="0.5" fill="none" ry="3" rx="3"></rect><rect fill-opacity="0.85" height="16" width="16" y="0.5" x="0.5" fill="rgb(255,255,255)" ry="3" rx="3"></rect><text  style="font-family:'lucida grande', 'lucida sans unicode', verdana, arial, helvetica, sans-serif;font-size:12px;color:#000000;fill:#000000;" y="21" x="8"></text></g></svg>